<svg xmlns="http://www.w3.org/2000/svg" xmlns:xlink="http://www.w3.org/1999/xlink" width="300" height="300" viewBox="0 0 548.25 536.249967" preserveAspectRatio="xMidYMid meet" version="1.0"><defs><g/><clipPath id="f2b2d4ed02"><rect x="0" width="211" y="0" height="307"/></clipPath><clipPath id="5ff4732a5f"><rect x="0" width="124" y="0" height="310"/></clipPath><clipPath id="6cee89049a"><path d="M 229.613281 118.152344 L 279.6875 118.152344 L 279.6875 407.191406 L 229.613281 407.191406 Z M 229.613281 118.152344 " clip-rule="nonzero"/></clipPath><clipPath id="d278c26cdf"><path d="M 0.613281 0.152344 L 50.6875 0.152344 L 50.6875 289.191406 L 0.613281 289.191406 Z M 0.613281 0.152344 " clip-rule="nonzero"/></clipPath><clipPath id="8d09687cb2"><rect x="0" width="51" y="0" height="290"/></clipPath><clipPath id="67fd49a900"><path d="M 279.6875 147.816406 L 306.015625 147.816406 L 306.015625 166.230469 L 279.6875 166.230469 Z M 279.6875 147.816406 " clip-rule="nonzero"/></clipPath><clipPath id="fd50585aac"><path d="M 0.6875 0.816406 L 27.015625 0.816406 L 27.015625 19.230469 L 0.6875 19.230469 Z M 0.6875 0.816406 " clip-rule="nonzero"/></clipPath><clipPath id="334175d75a"><rect x="0" width="28" y="0" height="20"/></clipPath></defs><g transform="matrix(1, 0, 0, 1, 91, 72)"><g clip-path="url(#f2b2d4ed02)"><g fill="#000000" fill-opacity="1"><g transform="translate(0.128291, 240.363065)"><g><path d="M 8.515625 0 L 8.515625 -2.234375 L 17.265625 -2.234375 C 29.515625 -2.234375 35.640625 -7.613281 35.640625 -18.375 L 35.640625 -142.5625 C 35.640625 -152.726562 29.515625 -157.8125 17.265625 -157.8125 L 8.515625 -157.8125 L 8.515625 -160.046875 L 54.015625 -160.046875 L 111.1875 -25.109375 L 160.71875 -160.046875 L 201.734375 -160.046875 L 201.734375 -157.8125 L 198.828125 -157.8125 C 186.578125 -157.8125 180.453125 -152.429688 180.453125 -141.671875 L 180.453125 -18.375 C 180.453125 -7.613281 186.578125 -2.234375 198.828125 -2.234375 L 201.734375 -2.234375 L 201.734375 0 L 142.109375 0 L 142.109375 -2.234375 L 142.78125 -2.234375 C 147.71875 -2.234375 151.640625 -3.578125 154.546875 -6.265625 C 157.460938 -8.960938 158.921875 -13 158.921875 -18.375 L 158.921875 -148.390625 L 104.453125 0 L 99.078125 0 L 37.875 -145.484375 L 37.875 -18.375 C 37.875 -7.613281 44.003906 -2.234375 56.265625 -2.234375 L 60.296875 -2.234375 L 60.296875 0 Z M 8.515625 0 "/></g></g></g></g></g><g transform="matrix(1, 0, 0, 1, 242, 152)"><g clip-path="url(#5ff4732a5f)"><g fill="#000000" fill-opacity="1"><g transform="translate(0.16691, 242.752425)"><g><path d="M 58.546875 2.265625 C 43.566406 2.265625 31.878906 -0.71875 23.484375 -6.6875 C 15.085938 -12.664062 10.890625 -20.117188 10.890625 -29.046875 C 10.890625 -39.640625 16.335938 -44.9375 27.234375 -44.9375 C 27.390625 -30.101562 30.148438 -18.90625 35.515625 -11.34375 C 40.890625 -3.78125 49.097656 0 60.140625 0 C 69.828125 0 77.65625 -2.796875 83.625 -8.390625 C 89.601562 -13.992188 92.59375 -22.394531 92.59375 -33.59375 C 92.59375 -40.394531 91.34375 -45.914062 88.84375 -50.15625 C 86.351562 -54.394531 82.347656 -58.210938 76.828125 -61.609375 C 71.304688 -65.015625 64.082031 -68.765625 55.15625 -72.859375 C 50.457031 -75.117188 45.648438 -77.570312 40.734375 -80.21875 C 35.816406 -82.875 31.273438 -86.050781 27.109375 -89.75 C 22.953125 -93.457031 19.625 -97.957031 17.125 -103.25 C 14.632812 -108.550781 13.390625 -114.984375 13.390625 -122.546875 C 13.390625 -136.171875 17.738281 -146.535156 26.4375 -153.640625 C 35.132812 -160.753906 46.75 -164.3125 61.28125 -164.3125 C 70.050781 -164.3125 77.765625 -163.097656 84.421875 -160.671875 C 91.078125 -158.253906 96.257812 -155.078125 99.96875 -151.140625 C 103.675781 -147.210938 105.53125 -142.90625 105.53125 -138.21875 C 105.53125 -133.820312 103.863281 -130.375 100.53125 -127.875 C 97.207031 -125.382812 92.898438 -124.140625 87.609375 -124.140625 C 87.609375 -136.703125 85.5625 -146.160156 81.46875 -152.515625 C 77.382812 -158.867188 70.578125 -162.046875 61.046875 -162.046875 C 52.273438 -162.046875 45.28125 -159.394531 40.0625 -154.09375 C 34.84375 -148.800781 32.234375 -141.007812 32.234375 -130.71875 C 32.234375 -123.3125 33.59375 -117.335938 36.3125 -112.796875 C 39.03125 -108.253906 43.113281 -104.359375 48.5625 -101.109375 C 54.007812 -97.859375 60.972656 -94.265625 69.453125 -90.328125 C 77.015625 -86.847656 84.007812 -83.21875 90.4375 -79.4375 C 96.875 -75.65625 102.054688 -70.847656 105.984375 -65.015625 C 109.921875 -59.191406 111.890625 -51.664062 111.890625 -42.4375 C 111.890625 -28.664062 107.234375 -17.769531 97.921875 -9.75 C 88.617188 -1.738281 75.492188 2.265625 58.546875 2.265625 Z M 58.546875 2.265625 "/></g></g></g></g></g><g clip-path="url(#6cee89049a)"><g transform="matrix(1, 0, 0, 1, 229, 118)"><g clip-path="url(#8d09687cb2)"><g clip-path="url(#d278c26cdf)"><!-- Removed white background rectangle --></g></g></g></g><g fill="#1f2122" fill-opacity="1"><g transform="translate(260.63925, 384.659322)"><g><path d="M -13.734375 -14.734375 L 0.015625 -16.34375 L 0 -14.796875 L -10.796875 -13.53125 L -0.34375 -7.984375 L -0.34375 -7.921875 L -10.625 -2.578125 L 0.015625 -1.140625 L 0.015625 -0.765625 L -13.734375 -2.640625 L -13.734375 -2.703125 L -2.296875 -8.625 L -13.734375 -14.65625 Z M -13.734375 -14.734375 "/></g></g></g><g fill="#1f2122" fill-opacity="1"><g transform="translate(260.63925, 364.332502)"><g><path d="M 0.015625 -11.234375 L -5.40625 -8.90625 L -5.40625 -3.65625 L 0.015625 -1.25 L 0.015625 -0.75 L -13.734375 -6.875 L -13.734375 -7 L 0.015625 -12.875 Z M -5.75 -3.828125 L -5.75 -8.765625 L -11.421875 -6.328125 Z M -5.75 -3.828125 "/></g></g></g><g fill="#1f2122" fill-opacity="1"><g transform="translate(260.63925, 351.197264)"><g><path d="M -13.484375 -10.5625 L -13.125 -10.5625 L -13.125 -6.390625 L 0.015625 -6.390625 L 0.015625 -4.875 L -13.125 -4.875 L -13.125 -0.703125 L -13.484375 -0.703125 Z M -13.484375 -10.5625 "/></g></g></g><g fill="#1f2122" fill-opacity="1"><g transform="translate(260.63925, 336.794009)"><g><path d="M -13.484375 -10.5625 L -13.125 -10.5625 L -13.125 -6.390625 L 0.015625 -6.390625 L 0.015625 -4.875 L -13.125 -4.875 L -13.125 -0.703125 L -13.484375 -0.703125 Z M -13.484375 -10.5625 "/></g></g></g><g fill="#1f2122" fill-opacity="1"><g transform="translate(260.63925, 322.390754)"><g><path d="M -13.484375 -8.890625 L -13.484375 -10.40625 L 0.015625 -10.40625 L 0.015625 -8.890625 L -6.84375 -8.890625 L -6.84375 -2.578125 L 0.015625 -2.578125 L 0.015625 -1.03125 L -13.484375 -1.03125 L -13.484375 -2.578125 L -7.21875 -2.578125 L -7.21875 -8.890625 Z M -13.484375 -8.890625 "/></g></g></g><g fill="#1f2122" fill-opacity="1"><g transform="translate(260.63925, 307.729955)"><g><path d="M -13.125 -7.875 L -13.125 -2.578125 L -7.21875 -2.578125 L -7.21875 -7.296875 L -6.84375 -7.296875 L -6.84375 -2.578125 L -0.34375 -2.578125 L -0.34375 -7.875 L 0.015625 -7.875 L 0.015625 -1.03125 L -13.484375 -1.03125 L -13.484375 -7.875 Z M -13.125 -7.875 "/></g></g></g><g fill="#1f2122" fill-opacity="1"><g transform="translate(260.63925, 295.816314)"><g><path d="M -13.484375 -18.125 L -13.484375 -18.484375 L 0.28125 -14.28125 L 0.28125 -14.140625 L -10.921875 -9.59375 L 0.28125 -5.046875 L 0.28125 -4.921875 L -13.453125 -0.703125 L -13.453125 -2.3125 L -2.3125 -5.734375 L -11.375 -9.40625 L -13.328125 -10.203125 L -13.328125 -10.28125 L -2.390625 -14.734375 Z M -13.484375 -18.125 "/></g></g></g><g fill="#1f2122" fill-opacity="1"><g transform="translate(260.63925, 273.429131)"><g/></g></g><g fill="#1f2122" fill-opacity="1"><g transform="translate(260.63925, 264.927968)"><g><path d="M 0.015625 -12.609375 L 0.015625 -10.671875 C -0.222656 -10.484375 -0.515625 -10.253906 -0.859375 -9.984375 C -1.203125 -9.722656 -1.566406 -9.441406 -1.953125 -9.140625 C -1.296875 -8.585938 -0.738281 -7.945312 -0.28125 -7.21875 C 0.175781 -6.5 0.40625 -5.695312 0.40625 -4.8125 C 0.40625 -3.925781 0.25 -3.179688 -0.0625 -2.578125 C -0.375 -1.972656 -0.785156 -1.519531 -1.296875 -1.21875 C -1.816406 -0.914062 -2.378906 -0.765625 -2.984375 -0.765625 C -3.742188 -0.765625 -4.410156 -0.960938 -4.984375 -1.359375 C -5.554688 -1.753906 -6.054688 -2.253906 -6.484375 -2.859375 C -6.910156 -3.472656 -7.304688 -4.101562 -7.671875 -4.75 C -7.953125 -4.519531 -8.191406 -4.332031 -8.390625 -4.1875 C -8.835938 -3.84375 -9.289062 -3.585938 -9.75 -3.421875 C -10.207031 -3.253906 -10.648438 -3.171875 -11.078125 -3.171875 C -11.867188 -3.171875 -12.535156 -3.453125 -13.078125 -4.015625 C -13.617188 -4.578125 -13.890625 -5.394531 -13.890625 -6.46875 C -13.890625 -7.425781 -13.660156 -8.144531 -13.203125 -8.625 C -12.753906 -9.113281 -12.203125 -9.359375 -11.546875 -9.359375 C -11.003906 -9.359375 -10.554688 -9.238281 -10.203125 -9 C -9.859375 -8.769531 -9.523438 -8.445312 -9.203125 -8.03125 C -9.003906 -7.789062 -8.816406 -7.519531 -8.640625 -7.21875 C -8.460938 -6.925781 -8.285156 -6.628906 -8.109375 -6.328125 C -7.535156 -6.773438 -6.84375 -7.304688 -6.03125 -7.921875 C -5.21875 -8.546875 -4.394531 -9.179688 -3.5625 -9.828125 C -4.082031 -10.171875 -4.578125 -10.457031 -5.046875 -10.6875 C -5.515625 -10.914062 -5.894531 -11.09375 -6.1875 -11.21875 C -6.488281 -11.351562 -6.640625 -11.421875 -6.640625 -11.421875 L -6.640625 -11.84375 C -6.640625 -11.84375 -6.472656 -11.78125 -6.140625 -11.65625 C -5.804688 -11.53125 -5.378906 -11.335938 -4.859375 -11.078125 C -4.335938 -10.816406 -3.789062 -10.492188 -3.21875 -10.109375 C -2.601562 -10.578125 -2.015625 -11.03125 -1.453125 -11.46875 C -0.898438 -11.90625 -0.410156 -12.285156 0.015625 -12.609375 Z M -13.53125 -6.46875 C -13.53125 -5.9375 -13.347656 -5.476562 -12.984375 -5.09375 C -12.628906 -4.707031 -12.148438 -4.515625 -11.546875 -4.515625 C -11.222656 -4.515625 -10.863281 -4.585938 -10.46875 -4.734375 C -10.082031 -4.878906 -9.671875 -5.117188 -9.234375 -5.453125 C -9.054688 -5.578125 -8.785156 -5.789062 -8.421875 -6.09375 C -8.660156 -6.519531 -8.90625 -6.910156 -9.15625 -7.265625 C -9.414062 -7.617188 -9.6875 -7.878906 -9.96875 -8.046875 C -10.394531 -8.304688 -10.859375 -8.4375 -11.359375 -8.4375 C -11.929688 -8.4375 -12.4375 -8.257812 -12.875 -7.90625 C -13.3125 -7.5625 -13.53125 -7.082031 -13.53125 -6.46875 Z M -0.578125 -6.828125 C -0.753906 -7.210938 -0.988281 -7.578125 -1.28125 -7.921875 C -1.582031 -8.273438 -1.914062 -8.601562 -2.28125 -8.90625 C -2.832031 -8.46875 -3.410156 -8.015625 -4.015625 -7.546875 C -4.628906 -7.078125 -5.222656 -6.617188 -5.796875 -6.171875 C -6.367188 -5.734375 -6.890625 -5.335938 -7.359375 -4.984375 C -7.265625 -4.796875 -7.148438 -4.585938 -7.015625 -4.359375 C -6.878906 -4.128906 -6.757812 -3.941406 -6.65625 -3.796875 C -5.84375 -2.679688 -4.847656 -2.125 -3.671875 -2.125 C -3.203125 -2.125 -2.71875 -2.21875 -2.21875 -2.40625 C -1.582031 -2.632812 -1.082031 -3 -0.71875 -3.5 C -0.363281 -4.007812 -0.1875 -4.585938 -0.1875 -5.234375 C -0.1875 -5.765625 -0.316406 -6.296875 -0.578125 -6.828125 Z M -0.578125 -6.828125 "/></g></g></g><g fill="#1f2122" fill-opacity="1"><g transform="translate(260.63925, 248.485802)"><g/></g></g><g fill="#1f2122" fill-opacity="1"><g transform="translate(260.63925, 239.984639)"><g><path d="M -1.015625 -0.53125 C -0.710938 -0.90625 -0.429688 -1.375 -0.171875 -1.9375 C 0.0859375 -2.507812 0.21875 -3.253906 0.21875 -4.171875 C 0.21875 -4.753906 0.101562 -5.296875 -0.125 -5.796875 C -0.351562 -6.296875 -0.703125 -6.695312 -1.171875 -7 C -1.640625 -7.3125 -2.222656 -7.46875 -2.921875 -7.46875 C -3.523438 -7.46875 -4.019531 -7.34375 -4.40625 -7.09375 C -4.789062 -6.851562 -5.109375 -6.53125 -5.359375 -6.125 C -5.617188 -5.71875 -5.84375 -5.269531 -6.03125 -4.78125 C -6.21875 -4.300781 -6.414062 -3.8125 -6.625 -3.3125 C -6.832031 -2.820312 -7.078125 -2.375 -7.359375 -1.96875 C -7.648438 -1.5625 -8.019531 -1.234375 -8.46875 -0.984375 C -8.914062 -0.742188 -9.484375 -0.625 -10.171875 -0.625 C -10.847656 -0.625 -11.421875 -0.75 -11.890625 -1 C -12.367188 -1.257812 -12.753906 -1.597656 -13.046875 -2.015625 C -13.335938 -2.429688 -13.550781 -2.875 -13.6875 -3.34375 C -13.820312 -3.820312 -13.890625 -4.273438 -13.890625 -4.703125 C -13.890625 -5.273438 -13.820312 -5.785156 -13.6875 -6.234375 C -13.550781 -6.679688 -13.414062 -7.035156 -13.28125 -7.296875 C -13.144531 -7.566406 -13.078125 -7.703125 -13.078125 -7.703125 L -12.640625 -7.734375 C -12.640625 -7.734375 -12.710938 -7.609375 -12.859375 -7.359375 C -13.003906 -7.109375 -13.148438 -6.753906 -13.296875 -6.296875 C -13.453125 -5.847656 -13.53125 -5.316406 -13.53125 -4.703125 C -13.53125 -3.785156 -13.253906 -3.070312 -12.703125 -2.5625 C -12.160156 -2.050781 -11.503906 -1.796875 -10.734375 -1.796875 C -10.085938 -1.796875 -9.5625 -1.960938 -9.15625 -2.296875 C -8.757812 -2.640625 -8.425781 -3.070312 -8.15625 -3.59375 C -7.894531 -4.113281 -7.644531 -4.664062 -7.40625 -5.25 C -7.175781 -5.84375 -6.90625 -6.398438 -6.59375 -6.921875 C -6.289062 -7.441406 -5.890625 -7.863281 -5.390625 -8.1875 C -4.890625 -8.519531 -4.242188 -8.6875 -3.453125 -8.6875 C -2.648438 -8.6875 -1.945312 -8.472656 -1.34375 -8.046875 C -0.75 -7.617188 -0.289062 -7.054688 0.03125 -6.359375 C 0.363281 -5.671875 0.53125 -4.941406 0.53125 -4.171875 C 0.53125 -3.390625 0.441406 -2.726562 0.265625 -2.1875 C 0.0976562 -1.65625 -0.0664062 -1.242188 -0.234375 -0.953125 C -0.410156 -0.671875 -0.5 -0.53125 -0.5 -0.53125 Z M -1.015625 -0.53125 "/></g></g></g><g fill="#1f2122" fill-opacity="1"><g transform="translate(260.63925, 228.157256)"><g><path d="M -13.484375 -10.484375 L -13.484375 -10.890625 L -6.296875 -6.59375 L 0.015625 -6.59375 L 0.015625 -5.046875 L -5.859375 -5.046875 L -13.484375 -0.6875 L -13.484375 -2.46875 L -6.640625 -6.375 Z M -13.484375 -10.484375 "/></g></g></g><g fill="#1f2122" fill-opacity="1"><g transform="translate(260.63925, 213.432072)"><g><path d="M -13.484375 -6.609375 C -13.484375 -7.097656 -13.4375 -7.644531 -13.34375 -8.25 C -13.257812 -8.863281 -13.097656 -9.472656 -12.859375 -10.078125 C -12.617188 -10.679688 -12.257812 -11.234375 -11.78125 -11.734375 C -11.3125 -12.242188 -10.679688 -12.648438 -9.890625 -12.953125 C -9.109375 -13.265625 -8.128906 -13.421875 -6.953125 -13.421875 C -5.734375 -13.421875 -4.710938 -13.25 -3.890625 -12.90625 C -3.066406 -12.5625 -2.398438 -12.109375 -1.890625 -11.546875 C -1.390625 -10.992188 -1.003906 -10.394531 -0.734375 -9.75 C -0.460938 -9.113281 -0.273438 -8.5 -0.171875 -7.90625 C -0.0664062 -7.3125 -0.0078125 -6.800781 0 -6.375 C 0.0078125 -5.957031 0.015625 -5.691406 0.015625 -5.578125 L 0.015625 -1.03125 L -13.484375 -1.03125 Z M -0.34375 -5.5625 C -0.34375 -6.289062 -0.441406 -7.023438 -0.640625 -7.765625 C -0.835938 -8.515625 -1.179688 -9.195312 -1.671875 -9.8125 C -2.160156 -10.425781 -2.832031 -10.914062 -3.6875 -11.28125 C -4.550781 -11.65625 -5.640625 -11.84375 -6.953125 -11.84375 C -7.992188 -11.84375 -8.878906 -11.710938 -9.609375 -11.453125 C -10.347656 -11.203125 -10.945312 -10.859375 -11.40625 -10.421875 C -11.863281 -9.984375 -12.210938 -9.5 -12.453125 -8.96875 C -12.691406 -8.4375 -12.859375 -7.894531 -12.953125 -7.34375 C -13.046875 -6.800781 -13.09375 -6.285156 -13.09375 -5.796875 L -13.09375 -2.578125 L -0.34375 -2.578125 Z M -0.34375 -5.5625 "/></g></g></g><g fill="#1f2122" fill-opacity="1"><g transform="translate(260.63925, 195.895344)"><g><path d="M -13.484375 -12 L 0.390625 -12 L 0.390625 -11.9375 L -11.296875 -1.390625 L 0.015625 -1.390625 L 0.015625 -1.03125 L -13.734375 -1.03125 L -13.734375 -1.09375 L -2.0625 -11.640625 L -13.484375 -11.640625 Z M -13.484375 -12 "/></g></g></g><g fill="#1f2122" fill-opacity="1"><g transform="translate(260.63925, 179.646347)"><g><path d="M -13.125 -7.875 L -13.125 -2.578125 L -7.21875 -2.578125 L -7.21875 -7.296875 L -6.84375 -7.296875 L -6.84375 -2.578125 L -0.34375 -2.578125 L -0.34375 -7.875 L 0.015625 -7.875 L 0.015625 -1.03125 L -13.484375 -1.03125 L -13.484375 -7.875 Z M -13.125 -7.875 "/></g></g></g><g fill="#1f2122" fill-opacity="1"><g transform="translate(260.63925, 167.732682)"><g><path d="M -13.484375 -10.484375 L -13.484375 -10.890625 L -6.296875 -6.59375 L 0.015625 -6.59375 L 0.015625 -5.046875 L -5.859375 -5.046875 L -13.484375 -0.6875 L -13.484375 -2.46875 L -6.640625 -6.375 Z M -13.484375 -10.484375 "/></g></g></g><g clip-path="url(#67fd49a900)"><g transform="matrix(1, 0, 0, 1, 279, 147)"><g clip-path="url(#334175d75a)"><g clip-path="url(#fd50585aac)"><!-- Removed white background rectangle --></g></g></g></g></svg>
